#!OML:ASF I:\Actors\actors\Patient Classification 2\Patient 1\Session 1\actor1.ASF
:FULLY-SPECIFIED
:DEGREES
76
root -0.604637 18.63 5.87426 -1.28684 -4.87784 -4.11441
lowerback 2.80684 2.15071 2.03117
upperback -1.52968 2.96893 0.513519
thorax -3.0695 1.44284 -0.767822
lowerneck -13.1113 -1.76245 1.21204
upperneck 23.0974 -3.09432 1.3291
head 9.44987 -1.18993 -0.114839
rclavicle -2.23633e-015 4.37326e-015
rhumerus -49.5109 -2.57718 -87.7859
rradius 42.1022
rwrist 15.6784
rhand -3.77154 -37.8995
rfingers 7.12502
rthumb 21.9733 -66.6715
lclavicle -2.23633e-015 4.37326e-015
lhumerus -42.8258 4.50964 87.6439
lradius 37.3567
lwrist -15.7569
lhand -5.8533 -25.2766
lfingers 7.12502
lthumb 19.9734 3.71688
rfemur 0 0 0
rtibia 0
rfoot 0 0
rtoes 0
lfemur -1.02643 -7.72905 -11.6705
ltibia 23.2262
lfoot -26.7038 15.599
ltoes -53.735
77
root -0.604947 18.6298 5.87398 -1.29347 -4.86398 -4.11916
lowerback 2.81585 2.15293 2.03983
upperback -1.53366 2.97261 0.514926
thorax -3.07823 1.44438 -0.771877
lowerneck -13.1358 -1.7658 1.22289
upperneck 23.1188 -3.09395 1.29407
head 9.46112 -1.1922 -0.129056
rclavicle -1.46107e-014 -2.38542e-015
rhumerus -49.4798 -2.6186 -87.7664
rradius 42.0543
rwrist 15.6935
rhand -3.74358 -37.8086
rfingers 7.12502
rthumb 22.0002 -66.5774
lclavicle -1.46107e-014 -2.38542e-015
lhumerus -42.825 4.50733 87.6658
lradius 37.3713
lwrist -15.7478
lhand -5.91613 -25.2686
lfingers 7.12502
lthumb 19.913 3.73118
rfemur 0 0 0
rtibia 0
rfoot 0 0
rtoes 0
lfemur -1.02864 -7.71756 -11.6616
ltibia 23.2224
lfoot -26.6767 15.6094
ltoes -53.7874
78
root -0.605557 18.6295 5.87357 -1.2951 -4.85296 -4.11026
lowerback 2.81555 2.15525 2.02538
upperback -1.53919 2.97499 0.507653
thorax -3.08404 1.44569 -0.771537
lowerneck -13.1366 -1.7631 1.27971
upperneck 23.1274 -3.09001 1.23854
head 9.46234 -1.19146 -0.157293
rclavicle -5.26779e-015 -2.38542e-015
rhumerus -49.4916 -2.61878 -87.7801
rradius 42.0607
rwrist 15.6551
rhand -3.76594 -37.7382
rfingers 7.12502
rthumb 21.9787 -66.5096
lclavicle -5.26779e-015 -2.38542e-015
lhumerus -42.819 4.53926 87.6365
lradius 37.3538
lwrist -15.8284
lhand -5.9488 -25.3208
lfingers 7.12502
lthumb 19.8816 3.68227
rfemur 0 0 0
rtibia 0
rfoot 0 0
rtoes 0
lfemur -1.03281 -7.70818 -11.6684
ltibia 23.2144
lfoot -26.6488 15.6386
ltoes -53.8737
79
root -0.605981 18.6298 5.87329 -1.28748 -4.84874 -4.09236
lowerback 2.81129 2.15604 2.00159
upperback -1.55349 2.97485 0.495557
thorax -3.09692 1.44576 -0.770864
lowerneck -13.1189 -1.75864 1.31236
upperneck 23.1331 -3.08797 1.22554
head 9.46026 -1.18916 -0.166838
rclavicle 1.06847e-015 4.77083e-015
rhumerus -49.5322 -2.61928 -87.7984
rradius 42.0939
rwrist 15.642
rhand -3.76423 -37.7291
rfingers 7.12502
rthumb 21.9804 -66.5002
lclavicle 1.06847e-015 4.77083e-015
lhumerus -42.8102 4.61967 87.578
lradius 37.3038
lwrist -15.9224
lhand -5.94742 -25.3806
lfingers 7.12502
lthumb 19.8829 3.62231
rfemur 0 0 0
rtibia 0
rfoot 0 0
rtoes 0
lfemur -1.03747 -7.74273 -11.693
ltibia 23.2064
lfoot -26.6486 15.677
ltoes -53.8658
80
root -0.606312 18.6304 5.87293 -1.27597 -4.8435 -4.09104
lowerback 2.8084 2.15499 1.99886
upperback -1.56219 2.97344 0.496182
thorax -3.10449 1.44498 -0.768729
lowerneck -13.1038 -1.76036 1.27868
upperneck 23.1189 -3.08995 1.25872
head 9.4536 -1.18963 -0.149754
rclavicle 1.73937e-014 2.38542e-015
rhumerus -49.524 -2.64336 -87.7923
rradius 42.086
rwrist 15.6756
rhand -3.78512 -37.701
rfingers 7.12502
rthumb 21.9603 -66.4745
lclavicle 1.73937e-014 2.38542e-015
lhumerus -42.8035 4.68546 87.559
lradius 37.2911
lwrist -15.9746
lhand -5.94799 -25.3933
lfingers 7.12502
lthumb 19.8824 3.60962
rfemur 0 0 0
rtibia 0
rfoot 0 0
rtoes 0
lfemur -1.04565 -7.75964 -11.6946
ltibia 23.1976
lfoot -26.6623 15.6984
ltoes -53.8624
81
root -0.606511 18.6305 5.87316 -1.27965 -4.83828 -4.07431
lowerback 2.80116 2.15966 1.98788
upperback -1.56167 2.97881 0.488973
thorax -3.09988 1.44787 -0.769957
lowerneck -13.0744 -1.76388 1.27095
upperneck 23.0739 -3.09161 1.26075
head 9.43239 -1.19174 -0.147377
rclavicle -1.56294e-014 -3.18055e-015
rhumerus -49.5303 -2.6621 -87.7967
rradius 42.0927
rwrist 15.6688
rhand -3.9048 -37.6324
rfingers 7.12502
rthumb 21.8454 -66.4194
lclavicle -1.56294e-014 -3.18055e-015
lhumerus -42.7999 4.67815 87.5719
lradius 37.3012
lwrist -15.9729
lhand -5.96508 -25.4216
lfingers 7.12502
lthumb 19.8659 3.58307
rfemur 0 0 0
rtibia 0
rfoot 0 0
rtoes 0
lfemur -1.03762 -7.74323 -11.7066
ltibia 23.19
lfoot -26.6912 15.6527
ltoes -53.8389
82
root -0.606717 18.6305 5.87277 -1.28878 -4.83111 -4.07215
lowerback 2.81349 2.16745 2.00087
upperback -1.57401 2.98967 0.468626
thorax -3.11755 1.4525 -0.799458
lowerneck -13.0277 -1.76258 1.32045
upperneck 23.0244 -3.09321 1.23785
head 9.40504 -1.19181 -0.162946
rclavicle -1.17034e-014 6.75868e-015
rhumerus -49.5699 -2.68412 -87.8276
rradius 42.1179
rwrist 15.6385
rhand -3.9462 -37.6124
rfingers 7.12502
rthumb 21.8056 -66.404
lclavicle -1.17034e-014 6.75868e-015
lhumerus -42.8004 4.59644 87.5796
lradius 37.2834
lwrist -15.9119
lhand -5.96495 -25.4642
lfingers 7.12502
lthumb 19.8661 3.54051
rfemur 0 0 0
rtibia 0
rfoot 0 0
rtoes 0
lfemur -1.02883 -7.72642 -11.7014
ltibia 23.1866
lfoot -26.6678 15.5983
ltoes -53.8007
83
root -0.607737 18.6308 5.87093 -1.27294 -4.8096 -4.08721
lowerback 2.82219 2.1631 2.01422
upperback -1.58658 2.98463 0.459595
thorax -3.13442 1.44933 -0.816592
lowerneck -13.0162 -1.74826 1.35077
upperneck 22.9871 -3.07285 1.2137
head 9.38889 -1.183 -0.173585
rclavicle -1.39149e-014 1.59028e-015
rhumerus -49.5559 -2.67854 -87.8713
rradius 42.118
rwrist 15.5977
rhand -3.92495 -37.6886
rfingers 7.12502
rthumb 21.826 -66.4778
lclavicle -1.39149e-014 1.59028e-015
lhumerus -42.785 4.53238 87.5887
lradius 37.2784
lwrist -15.8219
lhand -5.91016 -25.4521
lfingers 7.12502
lthumb 19.9187 3.54712
rfemur 0 0 0
rtibia 0
rfoot 0 0
rtoes 0
lfemur -1.06566 -7.63322 -11.6574
ltibia 23.1857
lfoot -26.5275 15.5603
ltoes -53.9221
84
root -0.609359 18.6314 5.8691 -1.23554 -4.78495 -4.07705
lowerback 2.80733 2.15498 1.97817
upperback -1.60127 2.97216 0.459522
thorax -3.14333 1.44371 -0.795681
lowerneck -13.0111 -1.73529 1.35995
upperneck 22.961 -3.04737 1.17921
head 9.37795 -1.17456 -0.183756
rclavicle -1.31198e-014 -7.55382e-015
rhumerus -49.5418 -2.64963 -87.8991
rradius 42.122
rwrist 15.5611
rhand -3.94772 -37.7865
rfingers 7.12502
rthumb 21.8042 -66.5782
lclavicle -1.31198e-014 -7.55382e-015
lhumerus -42.7877 4.51735 87.6029
lradius 37.3021
lwrist -15.7559
lhand -5.8876 -25.4105
lfingers 7.12502
lthumb 19.9404 3.58646
rfemur 0 0 0
rtibia 0
rfoot 0 0
rtoes 0
lfemur -1.12971 -7.48975 -11.6263
ltibia 23.1851
lfoot -26.4034 15.4817
ltoes -54.0407
85
root -0.610393 18.6318 5.86814 -1.20983 -4.77103 -4.0672
lowerback 2.79254 2.14467 1.95138
upperback -1.61956 2.95716 0.457184
thorax -3.15547 1.43655 -0.782217
lowerneck -12.9864 -1.72874 1.39028
upperneck 22.9568 -3.03617 1.14483
head 9.3707 -1.1708 -0.199034
rclavicle 2.37051e-014 1.98785e-015
rhumerus -49.5328 -2.63743 -87.9191
rradius 42.1011
rwrist 15.5618
rhand -3.96625 -37.7867
rfingers 7.12502
rthumb 21.7864 -66.5805
lclavicle 2.37051e-014 1.98785e-015
lhumerus -42.8293 4.53086 87.5976
lradius 37.3233
lwrist -15.7506
lhand -5.93759 -25.4013
lfingers 7.12502
lthumb 19.8924 3.60064
rfemur 0 0 0
rtibia 0
rfoot 0 0
rtoes 0
lfemur -1.16646 -7.43181 -11.6144
ltibia 23.1825
lfoot -26.4014 15.4176
ltoes -53.9859
86
root -0.610753 18.6322 5.86765 -1.20423 -4.76183 -4.05892
lowerback 2.77986 2.13517 1.94762
upperback -1.62126 2.94366 0.445154
thorax -3.14997 1.42983 -0.791262
lowerneck -12.9488 -1.71312 1.49715
upperneck 22.8992 -3.01004 1.03618
head 9.3398 -1.16256 -0.25041
rclavicle -2.11706e-014 6.75868e-015
rhumerus -49.479 -2.67581 -87.9354
rradius 42.0542
rwrist 15.6226
rhand -3.92096 -37.7226
rfingers 7.12502
rthumb 21.8299 -66.5113
lclavicle -2.11706e-014 6.75868e-015
lhumerus -42.8482 4.52776 87.5905
lradius 37.3107
lwrist -15.7481
lhand -6.00766 -25.4561
lfingers 7.12502
lthumb 19.825 3.55282
rfemur 0 0 0
rtibia 0
rfoot 0 0
rtoes 0
lfemur -1.17637 -7.44196 -11.6203
ltibia 23.1789
lfoot -26.4152 15.3933
ltoes -53.9286
87
root -0.61088 18.632 5.86754 -1.20289 -4.75575 -4.04553
lowerback 2.76761 2.13729 1.94144
upperback -1.61864 2.9454 0.429323
thorax -3.13977 1.4308 -0.803555
lowerneck -12.9097 -1.71308 1.55779
upperneck 22.8401 -3.0126 0.999722
head 9.31022 -1.16372 -0.272569
rclavicle -1.27471e-014 3.57812e-015
rhumerus -49.4603 -2.72705 -87.9331
rradius 42.0606
rwrist 15.6954
rhand -3.82294 -37.7043
rfingers 7.12502
rthumb 21.924 -66.482
lclavicle -1.27471e-014 3.57812e-015
lhumerus -42.8604 4.43234 87.626
lradius 37.3045
lwrist -15.669
lhand -6.02787 -25.5198
lfingers 7.12502
lthumb 19.8056 3.49113
rfemur 0 0 0
rtibia 0
rfoot 0 0
rtoes 0
lfemur -1.18194 -7.45281 -11.6329
ltibia 23.1775
lfoot -26.4141 15.3747
ltoes -53.9144
88
root -0.610956 18.6316 5.86724 -1.1928 -4.74031 -4.05358
lowerback 2.75698 2.1357 1.95796
upperback -1.62486 2.94347 0.418319
thorax -3.13887 1.42934 -0.823646
lowerneck -12.9307 -1.72373 1.48782
upperneck 22.8972 -3.0451 1.12914
head 9.33767 -1.1696 -0.220859
rclavicle 4.48259e-014 2.78299e-015
rhumerus -49.4691 -2.75405 -87.9386
rradius 42.0786
rwrist 15.734
rhand -3.76769 -37.6695
rfingers 7.12502
rthumb 21.977 -66.441
lclavicle 4.48259e-014 2.78299e-015
lhumerus -42.893 4.30617 87.6693
lradius 37.3519
lwrist -15.5807
lhand -6.03729 -25.5113
lfingers 7.12502
lthumb 19.7965 3.50058
rfemur 0 0 0
rtibia 0
rfoot 0 0
rtoes 0
lfemur -1.20101 -7.41697 -11.6119
ltibia 23.177
lfoot -26.3885 15.3422
ltoes -53.9111
89
root -0.611113 18.6317 5.86678 -1.18661 -4.72805 -4.06316
lowerback 2.74658 2.13123 1.97943
upperback -1.623 2.93784 0.409868
thorax -3.12974 1.4261 -0.843488
lowerneck -12.9833 -1.73275 1.42651
upperneck 22.9601 -3.06844 1.21828
head 9.37229 -1.17458 -0.183687
rclavicle 5.12616e-014 9.54166e-015
rhumerus -49.4316 -2.78105 -87.9504
rradius 42.0506
rwrist 15.7583
rhand -3.77625 -37.5976
rfingers 7.12502
rthumb 21.9688 -66.3701
lclavicle 5.12616e-014 9.54166e-015
lhumerus -42.9051 4.31488 87.6579
lradius 37.4108
lwrist -15.6198
lhand -6.11135 -25.4356
lfingers 7.12502
lthumb 19.7253 3.58362
rfemur 0 0 0
rtibia 0
rfoot 0 0
rtoes 0
lfemur -1.21317 -7.38039 -11.5924
ltibia 23.1763
lfoot -26.3586 15.3177
ltoes -53.9186
90
root -0.611088 18.6321 5.86715 -1.19615 -4.74001 -4.05119
lowerback 2.73892 2.13627 1.9771
upperback -1.61069 2.94391 0.404869
thorax -3.1124 1.42939 -0.846984
lowerneck -13.0234 -1.76215 1.38602
upperneck 22.9987 -3.1121 1.25767
head 9.39473 -1.19323 -0.169193
rclavicle 1.86361e-015 3.57812e-015
rhumerus -49.393 -2.78829 -87.9452
rradius 42.0284
rwrist 15.7605
rhand -3.78762 -37.5856
rfingers 7.12502
rthumb 21.9579 -66.3594
lclavicle 1.86361e-015 3.57812e-015
lhumerus -42.8982 4.42492 87.6219
lradius 37.4323
lwrist -15.7269
lhand -6.0983 -25.415
lfingers 7.12502
lthumb 19.7379 3.6029
rfemur 0 0 0
rtibia 0
rfoot 0 0
rtoes 0
lfemur -1.19245 -7.39349 -11.6127
ltibia 23.1719
lfoot -26.3668 15.3448
ltoes -53.9416
91
root -0.610991 18.6322 5.86745 -1.20481 -4.74985 -4.05407
lowerback 2.75027 2.13918 1.98475
upperback -1.61523 2.94856 0.407835
thorax -3.12314 1.43142 -0.849042
lowerneck -13.0129 -1.77805 1.34949
upperneck 23.0162 -3.13736 1.30278
head 9.40035 -1.203 -0.150533
rclavicle 4.22417e-015 -1.47101e-014
rhumerus -49.4141 -2.75821 -87.9449
rradius 42.0403
rwrist 15.7139
rhand -3.82891 -37.6116
rfingers 7.12502
rthumb 21.9182 -66.39
lclavicle 4.22417e-015 -1.47101e-014
lhumerus -42.9047 4.48175 87.6096
lradius 37.4091
lwrist -15.7651
lhand -5.99085 -25.4849
lfingers 7.12502
lthumb 19.8411 3.52235
rfemur 0 0 0
rtibia 0
rfoot 0 0
rtoes 0
lfemur -1.1703 -7.41377 -11.6157
ltibia 23.1614
lfoot -26.3826 15.366
ltoes -53.9416
